<mxfile host="app.diagrams.net" modified="2024-05-23T03:25:13.683Z" agent="Mozilla/5.0 (Windows NT 10.0; Win64; x64) AppleWebKit/537.36 (KHTML, like Gecko) Chrome/125.0.0.0 Safari/537.36" etag="ExNUFWXXMQqiocW5X0LR" version="24.4.6" type="device">
  <diagram name="Page-1" id="1McUho_X-yhC6YgAozrL">
    <mxGraphModel dx="1195" dy="615" grid="1" gridSize="10" guides="1" tooltips="1" connect="1" arrows="1" fold="1" page="1" pageScale="1" pageWidth="1100" pageHeight="850" math="0" shadow="0">
      <root>
        <mxCell id="0" />
        <mxCell id="1" parent="0" />
        <mxCell id="Y7d1YjiW6jG8wNn3Bp43-234" value="" style="rounded=0;whiteSpace=wrap;html=1;fillColor=#647687;strokeColor=#314354;fontColor=#ffffff;" vertex="1" parent="1">
          <mxGeometry x="595" y="130" width="30" height="30" as="geometry" />
        </mxCell>
        <mxCell id="Y7d1YjiW6jG8wNn3Bp43-233" value="" style="rounded=0;whiteSpace=wrap;html=1;fillColor=#bac8d3;strokeColor=#23445d;" vertex="1" parent="1">
          <mxGeometry x="605" y="140" width="30" height="30" as="geometry" />
        </mxCell>
        <mxCell id="wT0GYXemIt2AO4jlnJiB-13" value="Input&lt;br&gt;4@56x11" style="text;html=1;align=center;verticalAlign=middle;resizable=0;points=[];autosize=1;strokeColor=none;fillColor=none;" parent="1" vertex="1">
          <mxGeometry x="40" y="120" width="70" height="40" as="geometry" />
        </mxCell>
        <mxCell id="Y7d1YjiW6jG8wNn3Bp43-164" value="" style="rounded=0;whiteSpace=wrap;html=1;fillColor=#647687;fontColor=#ffffff;strokeColor=#314354;" vertex="1" parent="1">
          <mxGeometry x="50" y="160" width="30" height="60" as="geometry" />
        </mxCell>
        <mxCell id="Y7d1YjiW6jG8wNn3Bp43-169" value="" style="rounded=0;whiteSpace=wrap;html=1;fillColor=#bac8d3;strokeColor=#23445d;" vertex="1" parent="1">
          <mxGeometry x="60" y="170" width="30" height="60" as="geometry" />
        </mxCell>
        <mxCell id="Y7d1YjiW6jG8wNn3Bp43-170" value="" style="rounded=0;whiteSpace=wrap;html=1;fillColor=#647687;fontColor=#ffffff;strokeColor=#314354;" vertex="1" parent="1">
          <mxGeometry x="70" y="180" width="30" height="60" as="geometry" />
        </mxCell>
        <mxCell id="Y7d1YjiW6jG8wNn3Bp43-171" value="" style="rounded=0;whiteSpace=wrap;html=1;fillColor=#bac8d3;strokeColor=#23445d;" vertex="1" parent="1">
          <mxGeometry x="80" y="190" width="30" height="60" as="geometry" />
        </mxCell>
        <mxCell id="Y7d1YjiW6jG8wNn3Bp43-172" value="Upsample" style="text;html=1;align=center;verticalAlign=middle;resizable=0;points=[];autosize=1;strokeColor=none;fillColor=none;" vertex="1" parent="1">
          <mxGeometry x="110" y="240" width="80" height="30" as="geometry" />
        </mxCell>
        <mxCell id="Y7d1YjiW6jG8wNn3Bp43-174" value="" style="endArrow=classic;html=1;rounded=0;" edge="1" parent="1">
          <mxGeometry width="50" height="50" relative="1" as="geometry">
            <mxPoint x="130" y="209.5" as="sourcePoint" />
            <mxPoint x="160" y="210" as="targetPoint" />
          </mxGeometry>
        </mxCell>
        <mxCell id="Y7d1YjiW6jG8wNn3Bp43-175" value="" style="rounded=0;whiteSpace=wrap;html=1;fillColor=#647687;fontColor=#ffffff;strokeColor=#314354;" vertex="1" parent="1">
          <mxGeometry x="170" y="160" width="60" height="60" as="geometry" />
        </mxCell>
        <mxCell id="Y7d1YjiW6jG8wNn3Bp43-176" value="" style="rounded=0;whiteSpace=wrap;html=1;fillColor=#bac8d3;strokeColor=#23445d;" vertex="1" parent="1">
          <mxGeometry x="180" y="170" width="60" height="60" as="geometry" />
        </mxCell>
        <mxCell id="Y7d1YjiW6jG8wNn3Bp43-177" value="" style="rounded=0;whiteSpace=wrap;html=1;fillColor=#647687;fontColor=#ffffff;strokeColor=#314354;" vertex="1" parent="1">
          <mxGeometry x="190" y="180" width="60" height="60" as="geometry" />
        </mxCell>
        <mxCell id="Y7d1YjiW6jG8wNn3Bp43-178" value="" style="rounded=0;whiteSpace=wrap;html=1;fillColor=#bac8d3;strokeColor=#23445d;" vertex="1" parent="1">
          <mxGeometry x="200" y="190" width="60" height="60" as="geometry" />
        </mxCell>
        <mxCell id="Y7d1YjiW6jG8wNn3Bp43-179" value="4@56x55" style="text;html=1;align=center;verticalAlign=middle;resizable=0;points=[];autosize=1;strokeColor=none;fillColor=none;" vertex="1" parent="1">
          <mxGeometry x="160" y="130" width="80" height="30" as="geometry" />
        </mxCell>
        <mxCell id="Y7d1YjiW6jG8wNn3Bp43-180" value="" style="rounded=0;whiteSpace=wrap;html=1;fillColor=#647687;fontColor=#ffffff;strokeColor=#314354;" vertex="1" parent="1">
          <mxGeometry x="280" y="130" width="60" height="60" as="geometry" />
        </mxCell>
        <mxCell id="Y7d1YjiW6jG8wNn3Bp43-182" value="16@56x55" style="text;html=1;align=center;verticalAlign=middle;resizable=0;points=[];autosize=1;strokeColor=none;fillColor=none;" vertex="1" parent="1">
          <mxGeometry x="270" y="100" width="80" height="30" as="geometry" />
        </mxCell>
        <mxCell id="Y7d1YjiW6jG8wNn3Bp43-184" value="" style="rounded=0;whiteSpace=wrap;html=1;fillColor=#bac8d3;strokeColor=#23445d;" vertex="1" parent="1">
          <mxGeometry x="290" y="140" width="60" height="60" as="geometry" />
        </mxCell>
        <mxCell id="Y7d1YjiW6jG8wNn3Bp43-185" value="" style="rounded=0;whiteSpace=wrap;html=1;fillColor=#647687;fontColor=#ffffff;strokeColor=#314354;" vertex="1" parent="1">
          <mxGeometry x="300" y="150" width="60" height="60" as="geometry" />
        </mxCell>
        <mxCell id="Y7d1YjiW6jG8wNn3Bp43-187" value="" style="endArrow=none;dashed=1;html=1;dashPattern=1 3;strokeWidth=2;rounded=0;" edge="1" parent="1">
          <mxGeometry width="50" height="50" relative="1" as="geometry">
            <mxPoint x="380" y="230" as="sourcePoint" />
            <mxPoint x="320" y="175" as="targetPoint" />
          </mxGeometry>
        </mxCell>
        <mxCell id="Y7d1YjiW6jG8wNn3Bp43-188" value="" style="rounded=0;whiteSpace=wrap;html=1;fillColor=#647687;fontColor=#ffffff;strokeColor=#314354;" vertex="1" parent="1">
          <mxGeometry x="340" y="190" width="60" height="60" as="geometry" />
        </mxCell>
        <mxCell id="Y7d1YjiW6jG8wNn3Bp43-189" value="" style="rounded=0;whiteSpace=wrap;html=1;fillColor=#bac8d3;strokeColor=#23445d;" vertex="1" parent="1">
          <mxGeometry x="350" y="200" width="60" height="60" as="geometry" />
        </mxCell>
        <mxCell id="Y7d1YjiW6jG8wNn3Bp43-190" value="" style="rounded=0;whiteSpace=wrap;html=1;fillColor=#647687;fontColor=#ffffff;strokeColor=#314354;" vertex="1" parent="1">
          <mxGeometry x="360" y="210" width="60" height="60" as="geometry" />
        </mxCell>
        <mxCell id="Y7d1YjiW6jG8wNn3Bp43-191" value="" style="whiteSpace=wrap;html=1;aspect=fixed;fillColor=none;" vertex="1" parent="1">
          <mxGeometry x="230" y="205" width="10" height="10" as="geometry" />
        </mxCell>
        <mxCell id="Y7d1YjiW6jG8wNn3Bp43-192" value="" style="endArrow=none;html=1;rounded=0;exitX=0;exitY=1;exitDx=0;exitDy=0;" edge="1" parent="1" source="Y7d1YjiW6jG8wNn3Bp43-191">
          <mxGeometry width="50" height="50" relative="1" as="geometry">
            <mxPoint x="255" y="225" as="sourcePoint" />
            <mxPoint x="405" y="255" as="targetPoint" />
          </mxGeometry>
        </mxCell>
        <mxCell id="Y7d1YjiW6jG8wNn3Bp43-194" value="" style="endArrow=none;html=1;rounded=0;exitX=1;exitY=0;exitDx=0;exitDy=0;" edge="1" parent="1" source="Y7d1YjiW6jG8wNn3Bp43-191">
          <mxGeometry width="50" height="50" relative="1" as="geometry">
            <mxPoint x="235" y="130" as="sourcePoint" />
            <mxPoint x="405" y="255" as="targetPoint" />
          </mxGeometry>
        </mxCell>
        <mxCell id="Y7d1YjiW6jG8wNn3Bp43-199" value="Convolution" style="text;html=1;align=center;verticalAlign=middle;resizable=0;points=[];autosize=1;strokeColor=none;fillColor=none;" vertex="1" parent="1">
          <mxGeometry x="250" y="250" width="90" height="30" as="geometry" />
        </mxCell>
        <mxCell id="Y7d1YjiW6jG8wNn3Bp43-200" value="" style="rounded=0;whiteSpace=wrap;html=1;fillColor=#647687;fontColor=#ffffff;strokeColor=#314354;" vertex="1" parent="1">
          <mxGeometry x="430" y="160" width="30" height="30" as="geometry" />
        </mxCell>
        <mxCell id="Y7d1YjiW6jG8wNn3Bp43-201" value="" style="rounded=0;whiteSpace=wrap;html=1;fillColor=#bac8d3;strokeColor=#23445d;" vertex="1" parent="1">
          <mxGeometry x="440" y="170" width="30" height="30" as="geometry" />
        </mxCell>
        <mxCell id="Y7d1YjiW6jG8wNn3Bp43-202" value="" style="rounded=0;whiteSpace=wrap;html=1;fillColor=#647687;fontColor=#ffffff;strokeColor=#314354;" vertex="1" parent="1">
          <mxGeometry x="450" y="180" width="30" height="30" as="geometry" />
        </mxCell>
        <mxCell id="Y7d1YjiW6jG8wNn3Bp43-203" value="" style="endArrow=none;dashed=1;html=1;dashPattern=1 3;strokeWidth=2;rounded=0;" edge="1" parent="1">
          <mxGeometry width="50" height="50" relative="1" as="geometry">
            <mxPoint x="530" y="260" as="sourcePoint" />
            <mxPoint x="470" y="205" as="targetPoint" />
          </mxGeometry>
        </mxCell>
        <mxCell id="Y7d1YjiW6jG8wNn3Bp43-204" value="" style="rounded=0;whiteSpace=wrap;html=1;fillColor=#647687;fontColor=#ffffff;strokeColor=#314354;" vertex="1" parent="1">
          <mxGeometry x="490" y="220" width="30" height="30" as="geometry" />
        </mxCell>
        <mxCell id="Y7d1YjiW6jG8wNn3Bp43-205" value="" style="rounded=0;whiteSpace=wrap;html=1;fillColor=#bac8d3;strokeColor=#23445d;" vertex="1" parent="1">
          <mxGeometry x="500" y="230" width="30" height="30" as="geometry" />
        </mxCell>
        <mxCell id="Y7d1YjiW6jG8wNn3Bp43-206" value="" style="rounded=0;whiteSpace=wrap;html=1;fillColor=#647687;fontColor=#ffffff;strokeColor=#314354;" vertex="1" parent="1">
          <mxGeometry x="510" y="240" width="30" height="30" as="geometry" />
        </mxCell>
        <mxCell id="Y7d1YjiW6jG8wNn3Bp43-207" value="" style="whiteSpace=wrap;html=1;aspect=fixed;fillColor=none;" vertex="1" parent="1">
          <mxGeometry x="380" y="220" width="10" height="10" as="geometry" />
        </mxCell>
        <mxCell id="Y7d1YjiW6jG8wNn3Bp43-208" value="" style="endArrow=none;html=1;rounded=0;exitX=0;exitY=1;exitDx=0;exitDy=0;" edge="1" parent="1" source="Y7d1YjiW6jG8wNn3Bp43-207">
          <mxGeometry width="50" height="50" relative="1" as="geometry">
            <mxPoint x="405" y="240" as="sourcePoint" />
            <mxPoint x="530" y="260" as="targetPoint" />
          </mxGeometry>
        </mxCell>
        <mxCell id="Y7d1YjiW6jG8wNn3Bp43-209" value="" style="endArrow=none;html=1;rounded=0;exitX=1;exitY=0;exitDx=0;exitDy=0;" edge="1" parent="1" source="Y7d1YjiW6jG8wNn3Bp43-207">
          <mxGeometry width="50" height="50" relative="1" as="geometry">
            <mxPoint x="385" y="145" as="sourcePoint" />
            <mxPoint x="530" y="260" as="targetPoint" />
          </mxGeometry>
        </mxCell>
        <mxCell id="Y7d1YjiW6jG8wNn3Bp43-210" value="16@28x27" style="text;html=1;align=center;verticalAlign=middle;resizable=0;points=[];autosize=1;strokeColor=none;fillColor=none;" vertex="1" parent="1">
          <mxGeometry x="415" y="130" width="80" height="30" as="geometry" />
        </mxCell>
        <mxCell id="Y7d1YjiW6jG8wNn3Bp43-211" value="Max-pool" style="text;html=1;align=center;verticalAlign=middle;resizable=0;points=[];autosize=1;strokeColor=none;fillColor=none;" vertex="1" parent="1">
          <mxGeometry x="425" y="250" width="70" height="30" as="geometry" />
        </mxCell>
        <mxCell id="Y7d1YjiW6jG8wNn3Bp43-224" value="" style="endArrow=none;dashed=1;html=1;dashPattern=1 3;strokeWidth=2;rounded=0;" edge="1" parent="1">
          <mxGeometry width="50" height="50" relative="1" as="geometry">
            <mxPoint x="540" y="205" as="sourcePoint" />
            <mxPoint x="600" y="205" as="targetPoint" />
          </mxGeometry>
        </mxCell>
        <mxCell id="Y7d1YjiW6jG8wNn3Bp43-225" value="" style="rounded=0;whiteSpace=wrap;html=1;fillColor=#647687;fontColor=#ffffff;strokeColor=#314354;" vertex="1" parent="1">
          <mxGeometry x="615" y="150" width="30" height="30" as="geometry" />
        </mxCell>
        <mxCell id="Y7d1YjiW6jG8wNn3Bp43-226" value="" style="rounded=0;whiteSpace=wrap;html=1;fillColor=#bac8d3;strokeColor=#23445d;" vertex="1" parent="1">
          <mxGeometry x="625" y="160" width="30" height="30" as="geometry" />
        </mxCell>
        <mxCell id="Y7d1YjiW6jG8wNn3Bp43-227" value="" style="rounded=0;whiteSpace=wrap;html=1;fillColor=#647687;fontColor=#ffffff;strokeColor=#314354;" vertex="1" parent="1">
          <mxGeometry x="635" y="170" width="30" height="30" as="geometry" />
        </mxCell>
        <mxCell id="Y7d1YjiW6jG8wNn3Bp43-228" value="" style="endArrow=none;dashed=1;html=1;dashPattern=1 3;strokeWidth=2;rounded=0;" edge="1" parent="1">
          <mxGeometry width="50" height="50" relative="1" as="geometry">
            <mxPoint x="715" y="250" as="sourcePoint" />
            <mxPoint x="655" y="195" as="targetPoint" />
          </mxGeometry>
        </mxCell>
        <mxCell id="Y7d1YjiW6jG8wNn3Bp43-229" value="" style="rounded=0;whiteSpace=wrap;html=1;fillColor=#647687;fontColor=#ffffff;strokeColor=#314354;" vertex="1" parent="1">
          <mxGeometry x="675" y="210" width="30" height="30" as="geometry" />
        </mxCell>
        <mxCell id="Y7d1YjiW6jG8wNn3Bp43-230" value="" style="rounded=0;whiteSpace=wrap;html=1;fillColor=#bac8d3;strokeColor=#23445d;" vertex="1" parent="1">
          <mxGeometry x="685" y="220" width="30" height="30" as="geometry" />
        </mxCell>
        <mxCell id="Y7d1YjiW6jG8wNn3Bp43-231" value="" style="rounded=0;whiteSpace=wrap;html=1;fillColor=#647687;fontColor=#ffffff;strokeColor=#314354;" vertex="1" parent="1">
          <mxGeometry x="695" y="230" width="30" height="30" as="geometry" />
        </mxCell>
        <mxCell id="Y7d1YjiW6jG8wNn3Bp43-232" value="256@3x3" style="text;html=1;align=center;verticalAlign=middle;resizable=0;points=[];autosize=1;strokeColor=none;fillColor=none;" vertex="1" parent="1">
          <mxGeometry x="575" y="100" width="80" height="30" as="geometry" />
        </mxCell>
        <mxCell id="Y7d1YjiW6jG8wNn3Bp43-235" value="" style="rounded=0;whiteSpace=wrap;html=1;fillColor=#bac8d3;strokeColor=#23445d;" vertex="1" parent="1">
          <mxGeometry x="705" y="240" width="30" height="30" as="geometry" />
        </mxCell>
        <mxCell id="Y7d1YjiW6jG8wNn3Bp43-236" value="" style="rounded=0;whiteSpace=wrap;html=1;fillColor=#647687;fontColor=#ffffff;strokeColor=#314354;" vertex="1" parent="1">
          <mxGeometry x="715" y="250" width="30" height="30" as="geometry" />
        </mxCell>
        <mxCell id="Y7d1YjiW6jG8wNn3Bp43-239" value="" style="endArrow=none;html=1;rounded=0;entryX=0;entryY=1;entryDx=0;entryDy=0;" edge="1" parent="1" target="Y7d1YjiW6jG8wNn3Bp43-242">
          <mxGeometry width="50" height="50" relative="1" as="geometry">
            <mxPoint x="625" y="130" as="sourcePoint" />
            <mxPoint x="725" y="140" as="targetPoint" />
          </mxGeometry>
        </mxCell>
        <mxCell id="Y7d1YjiW6jG8wNn3Bp43-240" value="" style="endArrow=none;html=1;rounded=0;entryX=1;entryY=1;entryDx=0;entryDy=0;" edge="1" parent="1" target="Y7d1YjiW6jG8wNn3Bp43-242">
          <mxGeometry width="50" height="50" relative="1" as="geometry">
            <mxPoint x="745" y="280" as="sourcePoint" />
            <mxPoint x="820" y="240" as="targetPoint" />
          </mxGeometry>
        </mxCell>
        <mxCell id="Y7d1YjiW6jG8wNn3Bp43-242" value="" style="shape=parallelogram;perimeter=parallelogramPerimeter;whiteSpace=wrap;html=1;fixedSize=1;rounded=0;size=10;rotation=45;fillColor=#647687;strokeColor=#314354;fontColor=#ffffff;" vertex="1" parent="1">
          <mxGeometry x="665" y="204.99999999999997" width="250" height="10" as="geometry" />
        </mxCell>
        <mxCell id="Y7d1YjiW6jG8wNn3Bp43-244" value="Flatten" style="text;html=1;align=center;verticalAlign=middle;resizable=0;points=[];autosize=1;strokeColor=none;fillColor=none;" vertex="1" parent="1">
          <mxGeometry x="760" y="290" width="60" height="30" as="geometry" />
        </mxCell>
        <mxCell id="Y7d1YjiW6jG8wNn3Bp43-245" value="2304" style="text;html=1;align=center;verticalAlign=middle;resizable=0;points=[];autosize=1;strokeColor=none;fillColor=none;" vertex="1" parent="1">
          <mxGeometry x="780" y="180" width="50" height="30" as="geometry" />
        </mxCell>
        <mxCell id="Y7d1YjiW6jG8wNn3Bp43-246" value="" style="shape=parallelogram;perimeter=parallelogramPerimeter;whiteSpace=wrap;html=1;fixedSize=1;rounded=0;size=10;rotation=45;fillColor=#647687;strokeColor=#314354;fontColor=#ffffff;" vertex="1" parent="1">
          <mxGeometry x="820" y="210" width="118.79" height="10" as="geometry" />
        </mxCell>
        <mxCell id="Y7d1YjiW6jG8wNn3Bp43-247" value="" style="endArrow=none;html=1;rounded=0;entryX=0;entryY=1;entryDx=0;entryDy=0;exitX=0;exitY=0;exitDx=0;exitDy=0;" edge="1" parent="1" source="Y7d1YjiW6jG8wNn3Bp43-242" target="Y7d1YjiW6jG8wNn3Bp43-246">
          <mxGeometry width="50" height="50" relative="1" as="geometry">
            <mxPoint x="710" y="120" as="sourcePoint" />
            <mxPoint x="780" y="120" as="targetPoint" />
          </mxGeometry>
        </mxCell>
        <mxCell id="Y7d1YjiW6jG8wNn3Bp43-248" value="" style="endArrow=none;html=1;rounded=0;entryX=1;entryY=1;entryDx=0;entryDy=0;exitX=1;exitY=0;exitDx=0;exitDy=0;" edge="1" parent="1" source="Y7d1YjiW6jG8wNn3Bp43-242" target="Y7d1YjiW6jG8wNn3Bp43-246">
          <mxGeometry width="50" height="50" relative="1" as="geometry">
            <mxPoint x="790" y="204" as="sourcePoint" />
            <mxPoint x="902" y="236" as="targetPoint" />
          </mxGeometry>
        </mxCell>
        <mxCell id="Y7d1YjiW6jG8wNn3Bp43-249" value="1024" style="text;html=1;align=center;verticalAlign=middle;resizable=0;points=[];autosize=1;strokeColor=none;fillColor=none;" vertex="1" parent="1">
          <mxGeometry x="876.22" y="195" width="50" height="30" as="geometry" />
        </mxCell>
        <mxCell id="Y7d1YjiW6jG8wNn3Bp43-250" value="" style="shape=parallelogram;perimeter=parallelogramPerimeter;whiteSpace=wrap;html=1;fixedSize=1;rounded=0;size=10;rotation=45;fillColor=#647687;strokeColor=#314354;fontColor=#ffffff;" vertex="1" parent="1">
          <mxGeometry x="926.22" y="210" width="64.22" height="10" as="geometry" />
        </mxCell>
        <mxCell id="Y7d1YjiW6jG8wNn3Bp43-251" value="" style="endArrow=none;html=1;rounded=0;entryX=0;entryY=1;entryDx=0;entryDy=0;exitX=0;exitY=0;exitDx=0;exitDy=0;" edge="1" parent="1" source="Y7d1YjiW6jG8wNn3Bp43-246" target="Y7d1YjiW6jG8wNn3Bp43-250">
          <mxGeometry width="50" height="50" relative="1" as="geometry">
            <mxPoint x="850" y="160" as="sourcePoint" />
            <mxPoint x="952" y="176" as="targetPoint" />
          </mxGeometry>
        </mxCell>
        <mxCell id="Y7d1YjiW6jG8wNn3Bp43-252" value="" style="endArrow=none;html=1;rounded=0;entryX=1;entryY=1;entryDx=0;entryDy=0;exitX=1;exitY=0;exitDx=0;exitDy=0;" edge="1" parent="1" source="Y7d1YjiW6jG8wNn3Bp43-246" target="Y7d1YjiW6jG8wNn3Bp43-250">
          <mxGeometry width="50" height="50" relative="1" as="geometry">
            <mxPoint x="920" y="230" as="sourcePoint" />
            <mxPoint x="1005.83" y="260" as="targetPoint" />
          </mxGeometry>
        </mxCell>
        <mxCell id="Y7d1YjiW6jG8wNn3Bp43-254" value="216" style="text;html=1;align=center;verticalAlign=middle;resizable=0;points=[];autosize=1;strokeColor=none;fillColor=none;" vertex="1" parent="1">
          <mxGeometry x="965" y="200" width="40" height="30" as="geometry" />
        </mxCell>
        <mxCell id="Y7d1YjiW6jG8wNn3Bp43-255" value="" style="endArrow=none;html=1;rounded=0;exitX=1;exitY=0;exitDx=0;exitDy=0;entryX=1;entryY=1;entryDx=0;entryDy=0;" edge="1" parent="1" source="Y7d1YjiW6jG8wNn3Bp43-250" target="Y7d1YjiW6jG8wNn3Bp43-259">
          <mxGeometry width="50" height="50" relative="1" as="geometry">
            <mxPoint x="990.44" y="235.5" as="sourcePoint" />
            <mxPoint x="1050" y="220" as="targetPoint" />
          </mxGeometry>
        </mxCell>
        <mxCell id="Y7d1YjiW6jG8wNn3Bp43-259" value="" style="rounded=0;whiteSpace=wrap;html=1;fillColor=#647687;fontColor=#ffffff;strokeColor=#314354;" vertex="1" parent="1">
          <mxGeometry x="1040" y="210" width="10" height="10" as="geometry" />
        </mxCell>
        <mxCell id="Y7d1YjiW6jG8wNn3Bp43-260" value="" style="endArrow=none;html=1;rounded=0;exitX=0;exitY=0;exitDx=0;exitDy=0;entryX=1;entryY=0;entryDx=0;entryDy=0;" edge="1" parent="1" source="Y7d1YjiW6jG8wNn3Bp43-250" target="Y7d1YjiW6jG8wNn3Bp43-259">
          <mxGeometry width="50" height="50" relative="1" as="geometry">
            <mxPoint x="950" y="180" as="sourcePoint" />
            <mxPoint x="1005" y="166" as="targetPoint" />
          </mxGeometry>
        </mxCell>
        <mxCell id="Y7d1YjiW6jG8wNn3Bp43-261" value="Output&lt;div&gt;1&lt;/div&gt;" style="text;html=1;align=center;verticalAlign=middle;resizable=0;points=[];autosize=1;strokeColor=none;fillColor=none;" vertex="1" parent="1">
          <mxGeometry x="1015" y="165" width="60" height="40" as="geometry" />
        </mxCell>
        <mxCell id="Y7d1YjiW6jG8wNn3Bp43-263" value="Dense" style="text;html=1;align=center;verticalAlign=middle;resizable=0;points=[];autosize=1;strokeColor=none;fillColor=none;" vertex="1" parent="1">
          <mxGeometry x="915" y="260" width="60" height="30" as="geometry" />
        </mxCell>
      </root>
    </mxGraphModel>
  </diagram>
</mxfile>
